<svg width="53" height="21" viewBox="0 0 53 21" fill="none" xmlns="http://www.w3.org/2000/svg">
<rect width="53" height="21" rx="10.5" fill="#2EA37B"/>
<path d="M9.945 14V6.56L10.495 6.57C10.6583 6.57 10.825 6.565 10.995 6.555C11.165 6.54167 11.3483 6.53 11.545 6.52C11.7417 6.50667 11.9617 6.5 12.205 6.5C12.775 6.5 13.2433 6.57333 13.61 6.72C13.9767 6.86667 14.2483 7.07333 14.425 7.34C14.6017 7.60333 14.69 7.91333 14.69 8.27C14.69 8.50333 14.65 8.74 14.57 8.98C14.4933 9.22 14.3717 9.43167 14.205 9.615C14.0383 9.795 13.8233 9.92 13.56 9.99C13.8633 10.0067 14.135 10.1 14.375 10.27C14.6183 10.4367 14.8117 10.6517 14.955 10.915C15.0983 11.175 15.17 11.4583 15.17 11.765C15.17 12.215 15.08 12.6133 14.9 12.96C14.72 13.3067 14.4117 13.5783 13.975 13.775C13.5383 13.9717 12.9333 14.07 12.16 14.07C11.87 14.07 11.57 14.06 11.26 14.04C10.95 14.0233 10.705 14.01 10.525 14H9.945ZM11.105 9.745C11.195 9.75833 11.295 9.76833 11.405 9.775C11.515 9.77833 11.6283 9.78 11.745 9.78C11.8617 9.77667 11.9733 9.775 12.08 9.775C12.19 9.77167 12.29 9.77 12.38 9.77C12.72 9.77 13 9.66 13.22 9.44C13.4433 9.22 13.555 8.88333 13.555 8.43C13.555 8.05333 13.4217 7.775 13.155 7.595C12.8883 7.415 12.5067 7.325 12.01 7.325C11.95 7.325 11.855 7.32833 11.725 7.335C11.5983 7.33833 11.475 7.345 11.355 7.355C11.235 7.365 11.1517 7.37833 11.105 7.395V9.745ZM11.105 13.115C11.1617 13.1483 11.26 13.1733 11.4 13.19C11.54 13.2067 11.69 13.2183 11.85 13.225C12.0133 13.2283 12.1533 13.23 12.27 13.23C12.8067 13.23 13.2267 13.1317 13.53 12.935C13.8333 12.7383 13.985 12.3883 13.985 11.885C13.985 11.435 13.8483 11.1083 13.575 10.905C13.305 10.6983 12.8833 10.595 12.31 10.595C12.2167 10.595 12.1133 10.595 12 10.595C11.89 10.5917 11.7783 10.5917 11.665 10.595C11.555 10.595 11.4517 10.5967 11.355 10.6C11.2583 10.6033 11.175 10.61 11.105 10.62V13.115ZM19.4013 14.08C18.7113 14.0933 18.1147 13.9367 17.6113 13.61C17.108 13.28 16.723 12.8233 16.4563 12.24C16.1897 11.6533 16.0647 10.9833 16.0813 10.23C16.098 9.4 16.2613 8.70833 16.5713 8.155C16.8847 7.60167 17.2997 7.18667 17.8163 6.91C18.3363 6.63333 18.9147 6.49333 19.5513 6.49C20.2113 6.48667 20.7863 6.64167 21.2763 6.955C21.7663 7.265 22.143 7.705 22.4063 8.275C22.673 8.845 22.798 9.51333 22.7813 10.28C22.7647 11.11 22.608 11.805 22.3113 12.365C22.0147 12.9217 21.6147 13.3433 21.1113 13.63C20.608 13.9167 20.038 14.0667 19.4013 14.08ZM19.4313 13.18C20.0913 13.18 20.6163 12.9317 21.0063 12.435C21.3963 11.935 21.5913 11.2 21.5913 10.23C21.5913 9.71667 21.513 9.245 21.3563 8.815C21.203 8.38167 20.9713 8.035 20.6613 7.775C20.3547 7.51167 19.9713 7.38 19.5113 7.38C19.108 7.38 18.7363 7.48333 18.3963 7.69C18.0563 7.89667 17.783 8.215 17.5763 8.645C17.373 9.075 17.2713 9.62667 17.2713 10.3C17.2713 10.81 17.3513 11.285 17.5113 11.725C17.6747 12.1617 17.9163 12.5133 18.2363 12.78C18.5563 13.0467 18.9547 13.18 19.4313 13.18ZM24.128 14V6.57H25.198L28.308 11.38L29.298 13.23H28.948L28.818 11.15V6.57H29.908V14H28.788L25.798 9.37L24.648 7.28H25.078L25.198 9.53V14H24.128ZM34.4221 14.08C33.7321 14.08 33.1754 13.9533 32.7521 13.7C32.3321 13.4467 32.0271 13.0817 31.8371 12.605C31.6504 12.1283 31.5571 11.5567 31.5571 10.89L31.5621 6.57H32.7321L32.7221 10.665C32.7221 11.3283 32.7888 11.84 32.9221 12.2C33.0588 12.56 33.2554 12.81 33.5121 12.95C33.7721 13.09 34.0871 13.16 34.4571 13.16C34.7904 13.16 35.0754 13.09 35.3121 12.95C35.5521 12.8067 35.7354 12.555 35.8621 12.195C35.9921 11.835 36.0571 11.325 36.0571 10.665V6.57H37.2171V10.91C37.2171 11.93 36.9871 12.7133 36.5271 13.26C36.0671 13.8067 35.3654 14.08 34.4221 14.08ZM40.7394 14.08C40.416 14.08 40.1094 14.055 39.8194 14.005C39.5327 13.9583 39.286 13.9017 39.0794 13.835C38.8727 13.7683 38.7244 13.7067 38.6344 13.65L38.8794 12.695C39.006 12.7683 39.1644 12.84 39.3544 12.91C39.5444 12.98 39.7527 13.0383 39.9794 13.085C40.206 13.1283 40.436 13.15 40.6694 13.15C41.126 13.15 41.4744 13.0733 41.7144 12.92C41.9544 12.7667 42.0744 12.5167 42.0744 12.17C42.0744 11.9367 42.0144 11.7417 41.8944 11.585C41.7744 11.425 41.5944 11.275 41.3544 11.135C41.1177 10.995 40.821 10.84 40.4644 10.67C40.161 10.52 39.866 10.34 39.5794 10.13C39.296 9.92 39.0627 9.67333 38.8794 9.39C38.696 9.10667 38.6044 8.78167 38.6044 8.415C38.6044 8.055 38.6744 7.75333 38.8144 7.51C38.9577 7.26333 39.1494 7.065 39.3894 6.915C39.6294 6.765 39.896 6.65667 40.1894 6.59C40.486 6.52333 40.7894 6.49 41.0994 6.49C41.5527 6.49 41.9277 6.535 42.2244 6.625C42.521 6.71167 42.7344 6.79833 42.8644 6.885L42.6344 7.81C42.4644 7.70333 42.2644 7.60833 42.0344 7.525C41.8077 7.43833 41.496 7.395 41.0994 7.395C40.856 7.395 40.631 7.42667 40.4244 7.49C40.2177 7.55333 40.051 7.65 39.9244 7.78C39.7977 7.91 39.7344 8.07667 39.7344 8.28C39.7344 8.51 39.781 8.70333 39.8744 8.86C39.971 9.01333 40.126 9.15833 40.3394 9.295C40.5527 9.42833 40.8327 9.585 41.1794 9.765C41.4294 9.895 41.676 10.0333 41.9194 10.18C42.1627 10.3233 42.3827 10.4833 42.5794 10.66C42.7794 10.8367 42.9377 11.04 43.0544 11.27C43.1744 11.4967 43.2344 11.7567 43.2344 12.05C43.2344 12.5033 43.1277 12.8817 42.9144 13.185C42.7044 13.485 42.411 13.71 42.0344 13.86C41.661 14.0067 41.2294 14.08 40.7394 14.08Z" fill="white"/>
</svg>
