<svg width="56" height="52" viewBox="0 0 56 52" fill="none" xmlns="http://www.w3.org/2000/svg">
<path d="M4.50967 19.3193L0 14.5087L0.958478 13.4126L4.50693 14.962L5.79071 15.6272L4.93121 14.4771L2.86721 11.2295L3.7852 10.1797L9.25662 13.8904L8.57699 14.6678L5.31777 12.3518L3.86942 11.2573L4.93996 12.7828L7.13902 16.4052L6.7295 16.8737L2.7841 15.248L1.10336 14.4199L2.38606 15.7035L5.16304 18.5713L4.50967 19.3193Z" fill="#025438"/>
<path d="M6.73858 8.76535C6.61191 8.87009 6.45091 8.92461 6.28642 8.91844C6.20219 8.9158 6.11968 8.89401 6.04519 8.85473C5.97071 8.81545 5.90622 8.75972 5.85666 8.6918C5.77671 8.59525 5.7291 8.47618 5.72052 8.3513C5.71119 8.22578 5.73083 8.09979 5.77794 7.983C5.82164 7.86862 5.89503 7.76785 5.99061 7.69099C6.05422 7.63149 6.13005 7.5865 6.21285 7.55912C6.29565 7.53174 6.38345 7.52264 6.47013 7.53245C6.62757 7.5583 6.76916 7.64306 6.86598 7.76944C6.92738 7.84131 6.97213 7.92577 6.99708 8.01682C7.02203 8.10787 7.02656 8.20329 7.01033 8.29627C6.9833 8.48151 6.88605 8.64938 6.73858 8.76535ZM10.0191 13.5406L6.93596 9.72311L7.72821 9.08733L10.8114 12.9053L10.0191 13.5406Z" fill="#025438"/>
<path d="M11.612 12.2233L9.04883 8.04133L9.83014 7.56626L10.1035 8.00755C10.1782 7.84892 10.2635 7.69549 10.3589 7.54828C10.4735 7.36808 10.603 7.19769 10.746 7.03888C10.8902 6.87674 11.0557 6.73473 11.238 6.61666C11.4017 6.48546 11.5944 6.39502 11.8002 6.35286C12.006 6.31069 12.2189 6.31802 12.4212 6.37422C12.8919 6.61916 13.2716 7.00764 13.5049 7.4829L15.1074 10.098L14.2326 10.6308L12.6591 8.06203C12.5185 7.79081 12.3103 7.56022 12.0544 7.39246C11.8659 7.29694 11.6199 7.3536 11.3162 7.56244C11.2171 7.6299 11.1254 7.70771 11.0429 7.79453C10.9419 7.89886 10.8504 8.0119 10.7695 8.13231C10.6816 8.26114 10.6092 8.39973 10.5535 8.54527L12.4852 11.697L11.612 12.2233Z" fill="#025438"/>
<path d="M17.5216 9.162C17.2071 9.28456 16.8654 9.32087 16.532 9.26715C16.1772 9.20595 15.8478 9.04336 15.5839 8.79916C15.2536 8.48522 15.0038 8.09676 14.8556 7.66651C14.671 7.21682 14.597 6.72966 14.6397 6.24566C14.6801 5.8124 14.8414 5.39907 15.1055 5.05253C15.3883 4.69341 15.7674 4.42157 16.199 4.26856C16.4386 4.16954 16.693 4.11117 16.9519 4.09586C17.0971 4.08283 17.2435 4.09295 17.3855 4.12583L17.28 4.86022C17.1565 4.82006 17.0246 4.81237 16.8972 4.83788C16.7259 4.86924 16.5581 4.91761 16.3964 4.98225C16.1692 5.06642 15.9738 5.21869 15.8371 5.4181C15.6915 5.64117 15.6119 5.9006 15.6074 6.16666C15.6017 6.51351 15.6668 6.85792 15.7988 7.17891C15.9175 7.60824 16.1765 7.9859 16.5347 8.25217C16.6791 8.33859 16.8421 8.3892 17.0101 8.39972C17.1782 8.41024 17.3463 8.38038 17.5003 8.31265C17.7001 8.24005 17.8811 8.1239 18.0301 7.97269C18.146 7.85735 18.2485 7.72943 18.3358 7.59133L18.6731 8.00048C18.6334 8.09418 18.5776 8.2115 18.5058 8.35242C18.4184 8.51364 18.3048 8.65927 18.1695 8.78336C17.981 8.95128 17.7607 9.08 17.5216 9.162ZM18.7792 8.60521L18.5441 7.99611L18.485 7.99012L17.2357 4.74908L17.2592 4.71203L16.8765 3.81964L16.1504 1.93516L17.1001 1.57178L19.6786 8.26034L18.7792 8.60521Z" fill="#025438"/>
<path d="M20.9246 7.98082L20.0055 3.92747L19.2947 4.0871L19.1689 3.53248L19.8398 3.19198L19.7447 2.77085C19.6662 2.46841 19.6518 2.15296 19.7026 1.84468C19.7459 1.604 19.8462 1.37707 19.9951 1.18274C20.1316 1.00791 20.3019 0.862121 20.4959 0.753975C20.6779 0.65151 20.8736 0.575562 21.0771 0.528434C21.2087 0.498614 21.3426 0.48038 21.4774 0.47395C21.5646 0.469133 21.652 0.469133 21.7393 0.47395L21.9126 1.23667C21.8146 1.2296 21.7162 1.23052 21.6184 1.2394C21.4711 1.25527 21.325 1.28056 21.181 1.31513C21.0873 1.33444 20.9992 1.37473 20.9234 1.43297C20.8477 1.49121 20.7862 1.56586 20.7436 1.65127C20.646 1.88092 20.6329 2.1375 20.7064 2.37586L20.8404 2.96916L22.0099 2.70602L22.1739 3.44096L21.005 3.7041L21.9241 7.75745L20.9246 7.98082Z" fill="#025438"/>
<path d="M25.0419 7.34341C24.776 7.37467 24.5065 7.3439 24.2546 7.25352C24.0568 7.17489 23.8882 7.03733 23.7718 6.85962C23.6457 6.66066 23.5574 6.44037 23.511 6.20967C23.4504 5.92868 23.4098 5.64375 23.3896 5.35705L23.1709 2.49301L24.1851 2.41511L24.4038 5.27097C24.4138 5.55896 24.4665 5.8439 24.5602 6.11651C24.5841 6.19077 24.6242 6.25885 24.6776 6.31584C24.731 6.37283 24.7964 6.41731 24.8691 6.44611C25.0338 6.49245 25.206 6.50633 25.376 6.48698C25.5067 6.47579 25.6354 6.4474 25.7587 6.40253C25.8876 6.35686 26.0131 6.30224 26.1343 6.23909C26.2304 6.19098 26.3219 6.13427 26.4077 6.06965L26.1146 2.26474L27.1289 2.18738L27.5116 7.15164L27.0441 7.18759C26.9335 7.20084 26.8214 7.18892 26.7161 7.15273C26.6335 7.1195 26.5859 7.02143 26.5734 6.86071L26.5471 6.51749L26.5799 6.7098C26.4397 6.81701 26.2904 6.91198 26.1338 6.99364C25.9595 7.08592 25.7777 7.16338 25.5903 7.22519C25.413 7.28673 25.2289 7.32643 25.0419 7.34341Z" fill="#025438"/>
<path d="M28.5654 7.15656L28.9093 0L29.934 0.0490305L29.59 7.20559L28.5654 7.15656Z" fill="#025438"/>
<path d="M32.2383 7.43275L33.7878 1.05853L34.2585 1.18112C34.3989 1.2149 34.5434 1.24449 34.6921 1.26992C34.8403 1.29498 35.0005 1.3244 35.1722 1.35436C35.3439 1.38433 35.5336 1.42628 35.743 1.4764C36.1569 1.56284 36.551 1.72563 36.9049 1.95637C37.1626 2.12526 37.3622 2.36884 37.4768 2.65427C37.5736 2.92924 37.5852 3.22688 37.5101 3.50853C37.4581 3.71479 37.374 3.91167 37.2608 4.09201C37.1472 4.27745 36.9946 4.43617 36.8135 4.55727C36.6255 4.68051 36.4055 4.74641 36.1804 4.74686C36.4297 4.81911 36.6532 4.96043 36.825 5.15438C36.9968 5.34719 37.1207 5.57745 37.187 5.82667C37.2554 6.0801 37.2579 6.34674 37.1941 6.60138C37.1149 6.95802 36.9497 7.2901 36.7129 7.56895C36.4592 7.84301 36.1184 8.02156 35.7479 8.07453C35.2047 8.14431 34.653 8.10222 34.1268 7.95086C33.8774 7.89057 33.6223 7.82047 33.3613 7.74057L32.738 7.55152L32.2383 7.43275ZM33.4198 6.91574C33.4905 6.97205 33.5712 7.01457 33.6577 7.04104C33.7747 7.08462 33.9022 7.1253 34.0404 7.16307C34.1785 7.20085 34.2976 7.2319 34.3974 7.25624C34.7702 7.36816 35.1673 7.37118 35.5418 7.26495C35.6884 7.18367 35.817 7.07385 35.9202 6.94202C36.0233 6.81019 36.0987 6.65904 36.142 6.49756C36.1853 6.33608 36.1956 6.16758 36.1722 6.00206C36.1489 5.83655 36.0923 5.6774 36.006 5.5341C35.7284 5.25521 35.3693 5.071 34.9803 5.00783C34.9004 4.98822 34.8124 4.96588 34.7167 4.94191C34.621 4.91793 34.5248 4.89396 34.4286 4.87272C34.3324 4.85147 34.2427 4.83077 34.159 4.81388C34.0868 4.79854 34.0138 4.78691 33.9403 4.77901L33.4198 6.91574ZM34.1218 4.02827C34.1947 4.05841 34.2788 4.08711 34.3739 4.11435C34.4674 4.14104 34.5647 4.16883 34.6653 4.18898L34.9568 4.25436C35.0497 4.2756 35.1355 4.29576 35.2132 4.31429C35.3458 4.35069 35.4845 4.3598 35.6208 4.34107C35.7571 4.32234 35.8882 4.27615 36.006 4.20533C36.1378 4.11235 36.2497 3.99403 36.3349 3.85733C36.4202 3.72064 36.4771 3.56833 36.5024 3.40937C36.5459 3.27305 36.5531 3.12781 36.5233 2.9879C36.4935 2.84798 36.4277 2.71818 36.3324 2.61123C36.0756 2.3672 35.7523 2.20403 35.4029 2.14215C35.351 2.13016 35.2695 2.11219 35.1585 2.08767C35.0475 2.06316 34.9398 2.04572 34.8337 2.02992C34.7603 2.01557 34.6855 2.00953 34.6107 2.01194L34.1218 4.02827Z" fill="#025438"/>
<path d="M37.3325 8.83071L39.2237 4.30884L40.0237 4.64117L39.8476 5.24644L39.7781 5.61854L38.2713 9.22243L37.3325 8.83071ZM39.6136 5.87297L39.8148 5.23119C39.9255 5.14759 40.0531 5.08903 40.1888 5.05957C40.3755 5.01006 40.5681 4.98641 40.7612 4.9893C40.9641 4.98876 41.165 5.0284 41.3523 5.10589C41.4419 5.14218 41.5295 5.18328 41.6147 5.22901C41.671 5.25618 41.7209 5.29478 41.7612 5.34233L41.3944 6.22055C41.3468 6.16709 41.2942 6.11821 41.2374 6.07455C41.1178 5.99032 40.9877 5.922 40.8503 5.87134C40.6966 5.80478 40.5326 5.76479 40.3654 5.75311C40.2232 5.74387 40.0804 5.75285 39.9405 5.77981C39.8288 5.80046 39.7194 5.83165 39.6136 5.87297Z" fill="#025438"/>
<path d="M41.3294 10.7817C41.093 10.6478 40.8922 10.4595 40.7438 10.2325C40.6088 10.024 40.5356 9.78171 40.5327 9.53356C40.5336 9.26802 40.6094 9.00806 40.7514 8.78337C40.8914 8.53193 41.1129 8.33525 41.3796 8.22549C41.6505 8.12224 41.9435 8.08998 42.2304 8.13178C42.4421 8.16494 42.6504 8.21709 42.8526 8.28759C43.0639 8.36023 43.2707 8.445 43.4721 8.54147C43.6722 8.63809 43.8534 8.73434 44.0156 8.83022L44.0598 9.16964L43.6946 9.36794C43.5957 9.30965 43.4732 9.2459 43.3267 9.17835C43.1811 9.11067 43.0318 9.05137 42.8794 9.00074C42.7472 8.95429 42.6099 8.92375 42.4704 8.90976C42.3176 8.89017 42.1625 8.90091 42.0139 8.94136C41.8605 8.99226 41.733 9.10071 41.6585 9.24372C41.5998 9.32814 41.5598 9.42396 41.5409 9.5249C41.5221 9.62584 41.5249 9.72961 41.5491 9.82939C41.6268 10.0363 41.7804 10.2061 41.9789 10.3045C42.1011 10.3765 42.2332 10.4307 42.3709 10.4652C42.4985 10.4994 42.629 10.5218 42.7608 10.5322C42.8432 10.5424 42.9269 10.5382 43.0079 10.5197L43.0719 10.8084L42.752 11.0601C42.5361 11.0959 42.3157 11.0959 42.0997 11.0601C41.8268 11.0198 41.5648 10.9251 41.3294 10.7817ZM43.3693 11.9078L42.5404 11.4175L42.9155 10.7888L42.8663 10.7594L44.2534 8.4336C44.3212 8.34959 44.3658 8.2494 44.3827 8.14295C44.3997 8.03651 44.3885 7.92748 44.3502 7.82668C44.2319 7.63619 44.0641 7.48109 43.8647 7.37777C43.6986 7.28019 43.5238 7.19812 43.3425 7.1326C43.1671 7.06763 42.9876 7.01449 42.805 6.97352C42.6703 6.9404 42.5321 6.92303 42.3933 6.92177L42.5634 6.17157C42.7059 6.17776 42.8478 6.19488 42.9877 6.22278C43.2194 6.26522 43.448 6.32273 43.6722 6.39494C43.9189 6.4718 44.1557 6.57692 44.3781 6.7082C44.6598 6.86842 44.9153 7.07051 45.1359 7.30749C45.3187 7.50551 45.4229 7.76308 45.4289 8.03208C45.412 8.3804 45.2984 8.71722 45.1009 9.0051L43.3693 11.9078Z" fill="#025438"/>
<path d="M44.1387 12.433L47.3334 8.70819L48.0288 9.3004L47.6937 9.69865C48.0811 9.74675 48.4595 9.85023 48.8173 10.0059C49.0163 10.0917 49.2027 10.2039 49.3717 10.3393C49.5478 10.4535 49.6941 10.6079 49.7982 10.7898C49.9024 10.9716 49.9614 11.1756 49.9704 11.3848C49.8823 11.9065 49.6295 12.3865 49.2487 12.755L47.2519 15.0835L46.4717 14.4194L48.434 12.1312C48.6496 11.9139 48.8052 11.6448 48.8856 11.3499C48.9184 11.1422 48.7879 10.9268 48.4941 10.7038C48.3992 10.6299 48.2963 10.5667 48.1874 10.5153C48.0566 10.4513 47.9202 10.3992 47.7801 10.3595C47.6299 10.3166 47.4752 10.291 47.3191 10.2832L44.9134 13.0906L44.1387 12.433Z" fill="#025438"/>
<path d="M48.8934 17.0748C48.6789 16.8151 48.5377 16.5031 48.4845 16.1709C48.4323 15.8159 48.4847 15.4535 48.6354 15.1276C48.8317 14.7169 49.1242 14.3593 49.4883 14.0849C49.8595 13.7699 50.3007 13.5478 50.7754 13.4371C51.2012 13.3403 51.6457 13.3643 52.0586 13.5063C52.4889 13.6619 52.8663 13.9356 53.1472 14.2957C53.3159 14.4917 53.4508 14.7143 53.5463 14.9544C53.6041 15.0878 53.6399 15.2296 53.6524 15.3744L52.9198 15.5035C52.9197 15.3732 52.8856 15.2452 52.8208 15.132C52.7372 14.9795 52.6387 14.8357 52.5266 14.7027C52.3756 14.5138 52.1694 14.3764 51.9367 14.3093C51.6783 14.2412 51.4059 14.2466 51.1504 14.3251C50.818 14.4279 50.5099 14.597 50.245 14.822C49.8727 15.0683 49.5934 15.4312 49.4511 15.8533C49.414 16.0169 49.4167 16.1869 49.4591 16.3492C49.5016 16.5115 49.5824 16.6613 49.695 16.786C49.8265 16.9527 49.9937 17.088 50.1843 17.1821C50.3305 17.2558 50.4846 17.3128 50.6436 17.3521L50.3587 17.7993C50.2574 17.7906 50.1284 17.7745 49.9716 17.7509C49.7907 17.7182 49.6165 17.656 49.456 17.5667C49.2375 17.4417 49.0462 17.2744 48.8934 17.0748ZM49.8174 18.0925L50.3243 17.68L50.3117 17.6223L53.0127 15.4284L53.0553 15.4393L53.7874 14.7991L55.3572 13.5243L56.0002 14.3093L50.4265 18.8372L49.8174 18.0925Z" fill="#025438"/>
<path d="M47.6843 29.7796C46.191 29.7405 44.6981 29.8718 43.2348 30.1708C42.3725 30.3533 41.5234 30.5941 40.6705 30.8076C40.6267 30.3059 40.5802 29.7921 40.5381 29.2778C40.3752 27.4215 39.9359 25.5997 39.2347 23.8723C38.9957 23.2703 38.6557 23.1068 38.0734 23.3645C37.3779 23.6723 36.6862 23.9932 36.0165 24.3523C35.3795 24.6938 34.7742 25.0921 34.1334 25.4778C33.8601 24.9875 33.5867 24.4972 33.3084 24.0128C31.9318 21.6207 30.2412 19.4221 28.2815 17.4752C28.2148 17.3942 28.1309 17.329 28.0359 17.2842C27.9409 17.2394 27.8371 17.2162 27.732 17.2162C27.6269 17.2162 27.5231 17.2394 27.4281 17.2842C27.333 17.329 27.2492 17.3942 27.1825 17.4752C26.8845 17.765 26.6051 18.0745 26.3208 18.3774C24.663 20.1485 23.2219 22.1093 22.0277 24.2188C21.7866 24.6437 21.552 25.0725 21.3125 25.5029C20.0621 24.6331 18.7187 23.9043 17.307 23.3297C17.2113 23.2803 17.106 23.2523 16.9983 23.2476C16.8906 23.243 16.7833 23.2619 16.6837 23.3029C16.5841 23.344 16.4948 23.4062 16.4219 23.4853C16.3489 23.5643 16.2942 23.6583 16.2616 23.7606C15.7376 25.0247 15.3608 26.3445 15.1385 27.6941C14.9854 28.7292 14.8761 29.7698 14.7427 30.8393C12.5323 30.1025 10.2131 29.7423 7.88251 29.7736C7.08425 29.7812 6.80102 30.046 6.87046 30.8458C6.94974 31.7616 7.03449 32.6829 7.20399 33.5845C8.02975 38.1864 10.4798 42.3423 14.1117 45.3016C17.5822 48.2281 21.9548 49.8805 26.5002 49.9832C27.0469 49.9832 27.7539 49.9625 28.1508 49.4291C28.3536 49.1504 28.486 48.8271 28.5368 48.4866H28.5341C29.0486 39.5441 36.7716 31.3154 47.0856 31.2707C46.8053 35.1711 45.2833 38.8806 42.741 41.8596C40.0346 45.0819 36.3111 47.2942 32.1793 48.1346C32.0295 48.1542 31.8797 48.1733 31.7299 48.1951C32.2034 47.4324 32.6244 46.7481 33.0514 46.0796C33.2701 45.7348 33.3488 45.3899 32.9628 45.1485C32.5768 44.9072 32.2936 45.1082 32.0765 45.4607C31.4155 46.534 30.7419 47.5996 30.0803 48.6751C29.7484 49.2128 29.8037 49.4345 30.3537 49.7761C31.4412 50.4539 32.5347 51.1212 33.6217 51.799C33.9749 52.0169 34.3281 52.1564 34.5889 51.7102C34.8453 51.2743 34.5594 51.0194 34.2061 50.8058C33.5621 50.4146 32.9235 50.0148 32.2832 49.6181C32.8784 49.5135 33.4672 49.376 34.0471 49.2063C34.2324 49.1518 34.4085 49.0821 34.5938 49.0227C34.9157 48.9253 35.2335 48.8184 35.5473 48.7018L35.567 48.6942C35.991 48.5358 36.4067 48.3607 36.8142 48.169C36.9192 48.121 37.0252 48.0736 37.1297 48.024C37.1455 48.0164 37.1625 48.0093 37.1783 48.0017C40.4597 46.4194 43.2523 43.985 45.2623 40.9547C47.2723 37.9244 48.4253 34.4102 48.6001 30.782C48.6345 30.0896 48.3814 29.7927 47.6843 29.7796ZM27.7276 19.0257C29.8295 21.2151 31.5847 23.7105 32.9327 26.4263C30.7644 28.2078 28.9918 30.4194 27.7276 32.9204C26.4631 30.4165 24.6893 28.2023 22.5192 26.4187C23.8735 23.708 25.6299 21.2161 27.7293 19.0268L27.7276 19.0257ZM16.3146 30.4731C16.3786 28.701 16.7047 26.948 17.2824 25.2708C17.3146 25.1744 17.3534 25.0796 17.4234 24.8943C18.43 25.4882 19.4464 26.009 20.3797 26.6546C22.9056 28.3897 24.9546 30.7281 26.3394 33.456C26.3595 33.497 26.382 33.5368 26.4067 33.5753C26.6212 33.8994 26.75 34.2723 26.7809 34.6594C26.8117 35.0464 26.7438 35.435 26.5833 35.7888C26.1459 37.0217 25.9272 38.3292 25.6193 39.5899C24.797 38.2438 23.825 36.9945 22.7215 35.8656C21.1096 34.2099 19.2204 32.8469 17.1386 31.8379C16.2867 31.4244 16.2867 31.438 16.3146 30.4731ZM8.39481 31.2849C13.0925 31.3014 17.6113 33.0822 21.0495 36.2719C24.4877 39.4616 26.5926 43.8258 26.9441 48.4937C17.9953 48.6598 9.07881 41.4183 8.39481 31.2849ZM38.9154 31.5453C35.1399 33.2252 31.975 36.0226 29.8507 39.5572C28.9608 41.0107 28.2713 42.5769 27.8009 44.2137C27.7861 44.2638 27.7648 44.3117 27.7254 44.4174C27.6158 44.0065 27.4792 43.6032 27.3164 43.2101C27.0471 42.5466 26.9588 41.8239 27.0606 41.1154C27.1807 38.6052 27.8089 36.1451 28.9075 33.8831C30.7799 29.9559 33.9871 26.816 37.9607 25.0196C37.9908 25.0055 38.0242 24.9984 38.1499 24.9559C38.4135 26.0717 38.73 27.1635 38.9154 28.2792C39.0739 29.2288 39.0756 30.2035 39.1603 31.1667C39.1741 31.2491 39.1566 31.3336 39.1114 31.4038C39.0661 31.4741 38.9963 31.5251 38.9154 31.547V31.5453Z" fill="#025438"/>
</svg>
