<svg width="53" height="43" viewBox="0 0 53 43" fill="none" xmlns="http://www.w3.org/2000/svg">
<circle cx="21.5" cy="21.5" r="21.5" fill="#59595B"/>
<path d="M10.88 25V17.57H11.95L15.06 22.38L16.05 24.23H15.7L15.57 22.15V17.57H16.66V25H15.54L12.55 20.37L11.4 18.28H11.83L11.95 20.53V25H10.88ZM18.4191 25V17.57H22.7391V18.47H19.5991V20.73H21.9291V21.62H19.5991V24.08H23.0891V25H18.4191ZM25.5723 25.08L23.5423 17.57H24.7373L25.8723 22.31L26.2073 24.225H26.0323L26.3773 22.31L27.7173 17.57H28.6123L29.9823 22.31L30.4123 24.225H30.2173L30.5323 22.315L31.5873 17.57H32.7673L30.8473 25.08H29.6823L28.3373 20.34L27.9723 18.305L28.3323 18.315L27.9773 20.34L26.6123 25.08H25.5723Z" fill="white"/>
</svg>
